<?xml version="1.0" encoding="UTF-8"?>
<svg id="Layer_2" data-name="Layer 2" xmlns="http://www.w3.org/2000/svg" viewBox="0 0 313.3 139.99">
  <defs>
    <style>
      .cls-1 {
        fill: #231f20;
      }
    </style>
  </defs>
  <g id="Layer_1-2" data-name="Layer 1">
    <g>
      <path class="cls-1" d="M254.7,0v94.68c0,2.1-1.66,3.89-3.76,3.91-2.22.02-3.84-1.59-3.84-3.8V0h-58.6l18.6,139.99h0c50.14,0,92.53-37.13,99.14-86.84L313.3,0h-58.6Z"/>
      <path class="cls-1" d="M116.91,99.51c.9-4.92,1.64-10.18,2.49-15.72l-2.49,15.72Z"/>
      <path class="cls-1" d="M130.94.7l-11.54,83.09-2.49,15.72-6.4,40.48h-51.65C26.09,139.99,0,115.68,0,82.9v-8.3c0-.33.27-.61.61-.61h54.58c.34,0,.61.28.61.61v24.3c0,2.81,2.62,5.06,5.33,4.32,1.54-.42,2.27-1.6,2.27-3.63v-32.64C63.4,29.98,93.37,0,130.34,0c.37,0,.65.33.6.7Z"/>
      <path class="cls-1" d="M166.6,89.7h-13.66c-.87,0-1.55-.77-1.43-1.64l6.76-28.7c.23-1.76,2.77-1.76,3.01,0l6.76,28.7c.12.87-.56,1.64-1.43,1.64Z"/>
      <path class="cls-1" d="M177.05,138.93h-34.56l6-44.85c.18-1.33,1.31-2.32,2.66-2.32h17.26c1.34,0,2.48.99,2.66,2.32l6,44.85Z"/>
    </g>
  </g>
</svg>